<svg width="135" height="135" viewBox="0 0 135 135" fill="none" xmlns="http://www.w3.org/2000/svg">
<path d="M47.4611 105.743L27.2446 116.766C26.0582 117.412 24.992 118.207 24 119.073C35.7868 129.007 51.0023 135 67.6266 135C84.1281 135 99.2464 129.097 111 119.298C109.916 118.383 108.74 117.561 107.436 116.911L85.7875 106.093C82.9903 104.696 81.2236 101.838 81.2236 98.7129V90.2231C81.8321 89.5305 82.5276 88.6412 83.2716 87.5908C86.2221 83.4252 88.4542 78.843 90.0011 74.0359C92.7777 73.1797 94.8232 70.6165 94.8232 67.5702V58.508C94.8232 56.5146 93.936 54.7333 92.5579 53.4862V40.3861C92.5579 40.3861 95.2502 20 67.6291 20C40.0081 20 42.7004 40.3861 42.7004 40.3861V53.4862C41.3197 54.7333 40.4351 56.5146 40.4351 58.508V67.5702C40.4351 69.9571 41.6905 72.0578 43.5697 73.2717C45.835 83.1287 51.7668 90.2231 51.7668 90.2231V98.5033C51.7642 101.519 50.1125 104.297 47.4611 105.743Z" fill="#ECF0F1"/>
<path d="M68.6564 0.0100519C31.3822 -0.626765 0.646876 29.0744 0.0100586 66.3486C-0.351653 87.4832 9.06814 106.478 24.0665 119.11C25.0472 118.254 26.0992 117.47 27.2684 116.833L47.4096 105.846C50.0511 104.405 51.6967 101.636 51.6967 98.625V90.3718C51.6967 90.3718 45.7845 83.3006 43.5301 73.4758C41.6604 72.2659 40.4072 70.1745 40.4072 67.7929V58.7602C40.4072 56.7734 41.2911 54.9979 42.6641 53.7549V40.6976C42.6641 40.6976 39.9818 20.378 67.4999 20.378C95.0181 20.378 92.3358 40.6976 92.3358 40.6976V53.7549C93.7113 54.9979 94.5927 56.7734 94.5927 58.7602V67.7929C94.5927 70.8292 92.5549 73.3841 89.7885 74.2374C88.2474 79.0288 86.0237 83.5961 83.0841 87.7482C82.3429 88.7951 81.65 89.6815 81.0437 90.3718V98.8339C81.0437 101.949 82.8039 104.8 85.5906 106.19L107.158 116.973C108.452 117.62 109.622 118.438 110.699 119.347C125.244 107.217 134.641 89.0804 134.99 68.6564C135.632 31.3822 105.933 0.646869 68.6564 0.0100519Z" fill="#828282"/>
</svg>
